<svg viewBox="-58 0 512 512" xmlns="http://www.w3.org/2000/svg"><path d="m177 388v-50h-50c-11.046875 0-20-8.953125-20-20s8.953125-20 20-20h50v-50c0-11.046875 8.953125-20 20-20s20 8.953125 20 20v50h50c11.046875 0 20 8.953125 20 20s-8.953125 20-20 20h-50v50c0 11.046875-8.953125 20-20 20s-20-8.953125-20-20zm126.09375-270.9375c-44.613281-60.472656-88.492188-108.546875-90.339844-110.566406-3.789062-4.140625-9.144531-6.496094-14.753906-6.496094s-10.964844 2.355469-14.753906 6.496094c-1.847656 2.019531-45.726563 50.097656-90.339844 110.566406-61.648438 83.5625-92.90625 147.820312-92.90625 190.996094v5.46875c0 109.4375 88.820312 198.472656 198 198.472656 33.917969 0 67.394531-8.75 96.808594-25.304688 9.628906-5.417968 13.039062-17.613281 7.621094-27.238281-5.417969-9.625-17.609376-13.039062-27.238282-7.621093-23.4375 13.191406-50.128906 20.164062-77.191406 20.164062-87.121094 0-158-71.089844-158-158.476562v-5.464844c0-33.429688 30.148438-92.730469 84.894531-166.976563 28.097657-38.109375 56.484375-71.792969 73.109375-90.917969 16.570313 19.066407 44.835938 52.605469 72.902344 90.648438 54.871094 74.375 85.09375 133.773438 85.09375 167.246094v5.46875c0 25.851562-6.003906 50.496094-17.84375 73.238281-5.101562 9.796875-1.292969 21.875 8.503906 26.976563 9.792969 5.097656 21.875 1.292968 26.976563-8.503907 14.628906-28.105469 22.363281-59.816406 22.363281-91.714843v-5.464844c0-43.175782-31.257812-107.433594-92.90625-190.996094zm0 0"/></svg>