<svg id="Capa_1" enable-background="new 0 0 512 512" height="512" viewBox="0 0 512 512" width="512" xmlns="http://www.w3.org/2000/svg"><g><g><path d="m313.661 234.47c-25.162-25.22-39.024-58.77-39.024-94.46 0-8.55.81-16.91 2.35-25.02-27.603 1.09-55.255 12.28-78.648 35.67-24.572-24.57-52.835-35.71-83.358-35.71-30.733 0-59.626 11.96-81.348 33.68-44.844 44.84-44.844 117.8 0 162.65l154.105 154.08c5.881 5.88 15.361 5.86 21.222 0l154.085-154.07c11.251-11.24 19.932-24.49 25.672-39.02-28.352-4.13-54.494-17.19-75.056-37.8zm-11.722 55.6h-46.164l-29.703 56.19c-6.007 11.39-22.624 10.365-27.253-1.6l-37.914-98.02-18.952 35.49c-2.61 4.89-7.701 7.94-13.231 7.94h-43.714c-8.291 0-15.001-6.72-15.001-15 0-8.29 6.711-15 15.001-15h34.713l30.133-56.44c6.042-11.276 22.594-10.306 27.233 1.66l37.844 97.85 18.542-35.08c2.6-4.92 7.701-7.99 13.261-7.99h55.205c8.291 0 15.001 6.71 15.001 15 .001 8.28-6.71 15-15.001 15z"/></g><g><path d="m422.551 140.44c0 8.07-6.571 14.64-14.652 14.64s-14.651-6.57-14.651-14.64c0-8.08 6.571-14.65 14.651-14.65 8.082 0 14.652 6.57 14.652 14.65z"/><path d="m408.32 36.35c-56.616 0-103.68 45.82-103.68 103.66 0 57.17 46.145 103.67 103.68 103.67 57.176 0 103.68-46.5 103.68-103.67 0-57.16-46.505-103.66-103.68-103.66zm48.665 76.22-8.741 8.74c2.76 5.8 4.31 12.29 4.31 19.13 0 24.61-20.032 44.64-44.655 44.64-24.622 0-44.654-20.03-44.654-44.64 0-24.62 20.032-44.65 44.654-44.65 6.841 0 13.321 1.55 19.122 4.31l8.741-8.74c5.861-5.86 15.361-5.86 21.222 0s5.861 15.35.001 21.21z"/></g><g><path d="m451.714 423.64c-.79 34.15-27.723 52.01-53.915 52.01-26.183 0-53.115-17.86-53.905-52.01-.01-.64-.02-1.27-.02-1.91 0-47.44 40.684-96.46 42.444-98.55 2.85-3.39 7.051-5.36 11.491-5.36 2.22 0 4.38.49 6.34 1.41 1.96.91 3.72 2.25 5.151 3.95 1.77 2.12 43.534 52.43 42.414 100.46z"/></g></g></svg>