<?xml version="1.0" encoding="iso-8859-1"?>
<!-- Generator: Adobe Illustrator 19.0.0, SVG Export Plug-In . SVG Version: 6.00 Build 0)  -->
<svg version="1.1" id="Capa_1" xmlns="http://www.w3.org/2000/svg" xmlns:xlink="http://www.w3.org/1999/xlink" x="0px" y="0px"
	 viewBox="0 0 512.001 512.001" style="enable-background:new 0 0 512.001 512.001;" xml:space="preserve">
<g>
	<g>
		<path d="M215.752,151.687L215.752,151.687l-8.505,0l1.326-18.22h24.845c2.872,0,4.307-3.092,4.307-6.294
			c0-3.093-1.435-6.295-4.307-6.295h-34.01c-1.656,0-2.539,1.767-2.76,4.527l-2.872,29.042c0,0.994-0.11,1.988-0.11,2.871
			c0,3.423,1.216,5.632,5.743,5.632h16.344c7.178,0,11.595,3.976,11.595,12.368v2.098c0,8.392-4.417,12.257-11.705,12.257
			c-6.405,0-11.374-2.981-11.374-8.392c0-3.092-1.105-5.521-7.178-5.521c-4.528,0-7.178,1.435-7.178,6.515
			c0,10.269,9.165,19.987,26.06,19.987c14.245,0,25.729-6.736,25.729-24.846v-2.098
			C241.702,157.981,230.328,151.687,215.752,151.687z"/>
	</g>
</g>
<g>
	<g>
		<path d="M254.728,187.243c-4.306,0-7.509,3.424-7.509,7.509c0,3.975,3.203,7.509,7.509,7.509c3.975,0,7.399-3.533,7.399-7.509
			C262.127,190.667,258.704,187.243,254.728,187.243z"/>
	</g>
</g>
<g>
	<g>
		<path d="M307.4,157.428c6.294-2.208,10.6-7.729,10.6-17.005c0-14.023-9.827-19.545-23.298-19.545
			c-13.582,0-23.41,5.521-23.41,19.545c0,9.276,4.306,14.797,10.6,17.005c-7.84,2.871-13.141,9.386-13.141,20.76v1.325
			c0,16.453,11.374,22.748,25.951,22.748c14.575,0,25.838-6.295,25.838-22.748v-1.325C320.54,166.814,315.35,160.299,307.4,157.428z
			 M294.701,132.583c5.962,0,9.496,2.761,9.496,9.607s-3.534,9.607-9.496,9.607c-6.073,0-9.497-2.761-9.497-9.607
			S288.628,132.583,294.701,132.583z M306.185,177.858c0,8.613-4.195,12.699-11.483,12.699c-7.179,0-11.595-3.976-11.595-12.699
			v-2.209c0-8.393,4.306-12.147,11.595-12.147c7.177,0,11.483,3.755,11.483,12.147V177.858z"/>
	</g>
</g>
<g>
	<g>
		<path d="M373.268,258.881H197.799c-4.144,0-7.502,3.359-7.502,7.502s3.358,7.502,7.502,7.502h175.469
			c4.144,0,7.502-3.359,7.502-7.502S377.412,258.881,373.268,258.881z"/>
	</g>
</g>
<g>
	<g>
		<path d="M162.457,258.881H138.73c-4.144,0-7.502,3.359-7.502,7.502s3.358,7.502,7.502,7.502h23.727
			c4.144,0,7.502-3.359,7.502-7.502S166.601,258.881,162.457,258.881z"/>
	</g>
</g>
<g>
	<g>
		<path d="M366.115,86.063H145.882c-8.08,0-14.654,6.574-14.654,14.654V223.79c0,8.081,6.574,14.654,14.654,14.654h220.232
			c8.081,0,14.655-6.574,14.655-14.654V100.717h0.001C380.77,92.636,374.196,86.063,366.115,86.063z M365.766,223.44H146.232
			V101.066h219.534V223.44z"/>
	</g>
</g>
<g>
	<g>
		<path d="M417.262,118.946c-4.144,0-7.502,3.359-7.502,7.502v167.739c0,24.427-7.294,47.993-21.092,68.15
			c-11.295,16.501-25.712,30.525-42.19,41.421v-58.349c0-7.979-6.492-14.471-14.47-14.471H179.99
			c-7.979,0-14.471,6.492-14.471,14.471v58.349c-16.478-10.897-30.895-24.921-42.19-41.421
			c-13.797-20.158-21.091-43.724-21.091-68.15V91.054c0-41.934,34.116-76.05,76.05-76.05h155.421
			c41.934,0,76.051,34.116,76.051,76.05c0,4.143,3.358,7.502,7.502,7.502c4.144,0,7.502-3.359,7.502-7.502
			C424.764,40.847,383.917,0,333.709,0H178.288C128.08,0,87.235,40.847,87.235,91.054v203.132c0,27.465,8.2,53.961,23.715,76.626
			c14.922,21.799,34.806,39.662,57.631,52.331c0.52,0.383,1.089,0.702,1.7,0.942c14.42,7.791,29.983,13.508,46.19,16.855v59.89
			c0,6.16,5.011,11.171,11.171,11.171h56.716c6.16,0,11.172-5.011,11.172-11.171v-59.89c16.206-3.347,31.768-9.063,46.187-16.853
			c0.613-0.241,1.184-0.56,1.705-0.945c22.824-12.669,42.706-30.532,57.628-52.33c15.516-22.664,23.716-49.16,23.716-76.626V126.447
			C424.764,122.304,421.406,118.946,417.262,118.946z M216.47,425.59c-12.527-2.853-24.602-7.266-35.947-13.067v-66.581h35.947
			V425.59z M280.525,496.996h-49.051v-73.703h49.051V496.996z M280.525,408.29h-49.051v-30.309h49.051V408.29z M280.525,362.978
			h-49.051v-17.036h49.051V362.978z M295.528,425.59v-79.648h35.946v66.581h0C320.129,418.324,308.054,422.737,295.528,425.59z"/>
	</g>
</g>
<g>
</g>
<g>
</g>
<g>
</g>
<g>
</g>
<g>
</g>
<g>
</g>
<g>
</g>
<g>
</g>
<g>
</g>
<g>
</g>
<g>
</g>
<g>
</g>
<g>
</g>
<g>
</g>
<g>
</g>
</svg>
