<svg width="313" height="174" viewBox="0 0 313 174" fill="none" xmlns="http://www.w3.org/2000/svg">
<rect width="312.212" height="174" rx="12" fill="white"/>
<path d="M214.566 27.0576C212.554 30.2105 210.602 33.3934 208.741 36.6364C206.879 39.8794 205.077 43.1525 203.366 46.4555C200.783 51.3801 198.321 56.3647 195.949 61.3793C195.228 62.4603 194.508 63.5413 193.757 64.5923C191.925 67.2347 190.003 69.8171 188.052 72.3694C188.082 72.3394 188.082 72.3394 188.112 72.3094C188.082 72.3394 188.052 72.3995 188.022 72.4295C188.022 72.4595 187.992 72.4595 187.961 72.4896C187.961 72.4896 187.961 72.4595 187.992 72.4595C182.677 79.3058 176.881 85.8519 170.515 91.7373C170.515 91.6773 170.545 91.5872 170.545 91.5271C170.666 90.4762 170.786 89.4252 170.906 88.3442C171.056 87.2632 171.236 86.2122 171.596 85.1613C171.716 84.8009 171.536 84.3805 171.206 84.1703C170.906 83.9902 170.395 83.9902 170.155 84.3205C169.104 85.6717 167.813 86.7828 166.522 87.8938C165.891 88.4343 165.261 88.9447 164.63 89.4852C164.69 89.0949 164.75 88.6745 164.81 88.2841C164.84 87.9538 164.84 87.6235 164.78 87.3232C164.75 87.1131 164.72 86.9029 164.66 86.6927C164.6 86.4825 164.51 86.3023 164.42 86.0921C164.24 85.6417 163.519 85.4916 163.129 85.7618C160.967 87.3233 158.534 88.4643 156.312 89.9357C156.342 89.7555 156.342 89.5753 156.342 89.4252C156.372 88.9748 156.372 88.5544 156.312 88.104C156.282 87.8337 156.222 87.5635 156.162 87.2932C156.102 87.023 155.982 86.7828 155.862 86.5425C155.742 86.3023 155.471 86.1221 155.231 86.0621C154.871 85.972 154.451 86.0621 154.21 86.3323C150.967 89.5753 147.244 92.2778 143.761 95.2506C143.851 94.2296 143.911 93.2087 144.031 92.1877C144.091 91.9775 144.091 91.7674 144.031 91.5572C143.941 91.2569 143.731 90.9866 143.46 90.8365C142.98 90.5662 142.349 90.6263 141.959 91.0167C139.136 93.7792 136.464 96.7219 133.341 99.1542C131.84 100.295 130.278 101.286 128.537 102.037C127.966 102.277 127.396 102.457 126.795 102.637C128.386 97.6828 129.888 92.7282 131.479 87.7737C131.659 87.1731 131.359 86.5125 130.849 86.2122C130.308 85.8819 129.618 86.002 129.167 86.4224C125.324 90.1158 121.72 94.0495 118.027 97.893C115.505 100.505 112.922 103.058 110.19 105.49C112.382 102.217 114.544 98.944 116.646 95.5809C119.618 90.8065 122.441 85.942 124.753 80.8373C126.975 75.9427 128.777 70.8681 129.618 65.5531C129.678 65.2829 129.678 65.0126 129.618 64.7424C129.558 64.4721 129.407 64.262 129.227 64.0518C128.747 63.5713 127.966 63.4812 127.366 63.8115C125.474 64.8925 123.732 66.2738 122.141 67.7752C121.03 68.8262 119.979 69.9072 118.988 71.0482C119.108 70.7179 119.198 70.3876 119.318 70.0273C121.06 64.5622 122.141 58.887 122.501 53.1517C121.03 57.6258 119.378 62.0399 117.697 66.4239C116.856 68.5859 116.015 70.7179 115.204 72.8799C114.394 74.9819 113.553 77.0838 112.682 79.1557V79.1257C112.682 79.1257 112.682 79.1557 112.652 79.1557C112.622 79.2458 112.562 79.3659 112.532 79.456C112.562 79.3959 112.562 79.3659 112.592 79.3058C112.502 79.516 112.412 79.6962 112.322 79.9064C110.67 82.4287 109.139 85.0411 107.697 87.6836C105.115 92.428 102.833 97.3525 100.851 102.397C100.01 104.589 99.2295 106.781 98.5389 109.033C98.0585 110.595 97.6381 112.156 97.3378 113.718C96.6472 115.459 95.9865 117.201 95.356 118.972C94.1849 122.246 93.1639 125.549 92.2331 128.882C92.0529 129.542 92.3532 130.263 92.9537 130.623C93.3141 130.833 93.7345 130.893 94.1248 130.773C94.4852 130.683 94.8755 130.413 95.0557 130.053C97.9684 124.137 101.482 118.582 105.085 113.087C106.046 112.426 106.977 111.766 107.908 111.045C110.67 108.943 113.252 106.631 115.745 104.229C119.708 100.385 123.432 96.3316 127.245 92.3379C126.074 96.2115 124.843 100.055 123.672 103.929C123.522 104.379 123.672 104.889 124.002 105.22C124.153 105.37 124.363 105.49 124.573 105.55C124.813 105.61 125.053 105.61 125.264 105.55C127.125 105.31 128.867 104.709 130.548 103.869C132.26 103.028 133.821 101.947 135.293 100.746C137.485 99.004 139.467 97.0222 141.419 95.0104C141.388 95.8211 141.328 96.6619 141.238 97.4726C141.238 97.5327 141.208 97.6228 141.208 97.6828C141.148 97.893 141.148 98.1032 141.208 98.2834C141.298 98.5837 141.479 98.8239 141.749 98.974C142.199 99.2443 142.77 99.1542 143.13 98.7938C146.643 95.3407 150.697 92.518 154.27 89.1549C154.24 90.0558 154.12 90.9866 154.15 91.8875C154.15 92.2478 154.33 92.5781 154.631 92.7583C155.051 92.9985 155.502 92.9084 155.832 92.6081C155.982 92.488 156.132 92.3679 156.282 92.2178C158.354 90.6563 160.726 89.5153 162.888 88.0739C162.888 88.2841 162.858 88.4943 162.828 88.7346C162.768 89.215 162.678 89.6954 162.618 90.2059C162.558 90.7464 162.588 91.2869 162.708 91.8274C162.828 92.458 163.789 92.7282 164.21 92.2178C165.2 91.1067 166.402 90.1459 167.543 89.185C168.113 88.7045 168.654 88.2241 169.194 87.7436C169.014 89.1249 168.894 90.5062 168.714 91.8875C168.624 92.518 168.534 93.1186 168.353 93.7492C168.263 94.1095 168.413 94.5299 168.744 94.7101C169.104 94.9203 169.494 94.8302 169.795 94.59C174.929 90.0257 179.704 85.0712 184.148 79.8163C186.82 76.6634 189.373 73.4504 191.835 70.1174C186.85 81.1075 182.076 92.1877 177.091 103.178C176.851 103.118 176.611 103.028 176.371 102.938C175.65 102.607 174.959 102.187 174.329 101.707C173.128 100.746 172.077 99.6046 171.146 98.4035C170.365 97.3525 169.645 96.2715 168.954 95.1605C168.714 94.7701 168.383 94.4999 167.933 94.3798C167.332 94.1996 166.762 94.4098 166.281 94.8002C164.42 96.4217 162.858 98.3735 161.477 100.415C160.006 102.577 158.835 104.95 157.784 107.352C155.532 112.637 154.06 118.252 153.309 123.927C152.769 127.951 152.529 132.005 152.739 136.088C152.829 137.98 153.039 139.872 153.4 141.764C153.7 143.385 154.15 144.977 154.691 146.538C154.841 146.988 155.141 147.319 155.622 147.469C156.192 147.619 156.793 147.379 157.093 146.868C159.015 143.685 160.876 140.472 162.708 137.229C164.51 133.986 166.281 130.683 167.963 127.38C171.356 120.744 174.539 113.988 177.632 107.202C177.692 107.051 177.782 106.901 177.842 106.751C178.353 106.811 178.833 106.811 179.344 106.781C181.686 106.631 183.848 105.67 185.799 104.409C188.022 102.968 190.003 101.136 191.895 99.2743C194.147 97.0522 196.309 94.68 198.531 92.428C198.441 93.569 198.381 94.7101 198.231 95.8211C198.171 96.2415 198.081 96.6619 197.991 97.0823C197.871 97.6528 197.991 98.2233 198.411 98.6437C198.802 99.0341 199.462 99.2443 199.973 99.0641C202.105 98.2834 204.116 97.2324 206.008 95.9412C208.02 94.59 209.822 92.9685 211.443 91.2269C214.746 87.7436 217.419 83.6899 220.031 79.6962C215.617 83.5998 211.473 87.8337 206.819 91.437C205.768 92.2478 204.687 93.0285 203.576 93.7192C202.915 94.1395 202.255 94.5299 201.564 94.8602C201.594 94.5299 201.624 94.2296 201.654 93.8993C201.774 92.6382 201.834 91.377 201.984 90.1158C202.075 89.5153 202.195 88.9147 202.345 88.3442C202.555 87.6235 202.225 86.8728 201.594 86.4825C200.933 86.0921 200.153 86.2423 199.612 86.7527C197.06 89.0949 194.688 91.6172 192.285 94.1095C190.123 96.3616 187.931 98.6437 185.469 100.565C184.328 101.436 183.127 102.217 181.836 102.788C181.145 103.058 180.425 103.268 179.704 103.388C179.584 103.388 179.464 103.418 179.314 103.418C184.869 90.9866 190.154 78.4651 195.829 66.0936C196.609 64.3821 197.42 62.6405 198.231 60.9289C205.137 50.4792 211.173 39.369 216.037 27.8383L216.128 27.6281C216.158 27.478 216.158 27.2978 216.128 27.1477C216.067 26.9375 215.917 26.7273 215.707 26.6072C215.557 26.5171 215.407 26.4871 215.257 26.4871C215.047 26.6072 214.746 26.7573 214.566 27.0576ZM125.834 68.5259C125.083 71.5587 124.062 74.5314 122.861 77.4141C120.219 83.6599 116.796 89.5453 113.162 95.2506C109.739 100.656 106.106 105.94 102.563 111.315C102.082 111.616 101.632 111.916 101.151 112.216C101.482 111.405 101.812 110.595 102.172 109.784C102.142 109.844 102.112 109.904 102.112 109.964C104.935 103.298 108.028 96.782 111 90.2059C112.262 87.4133 113.523 84.6208 114.724 81.8282C115.985 79.8764 117.336 77.9546 118.748 76.1229C120.819 73.3604 123.132 70.7179 125.834 68.5259ZM122.921 77.294C122.921 77.324 122.891 77.354 122.891 77.3841C122.891 77.354 122.891 77.324 122.921 77.294ZM170.876 88.4042C170.876 88.4343 170.876 88.4943 170.846 88.5244C170.876 88.4943 170.876 88.4643 170.876 88.4042ZM162.858 88.6745C162.858 88.7045 162.858 88.7346 162.828 88.7946C162.858 88.7346 162.858 88.7045 162.858 88.6745ZM144.001 92.2178C144.001 92.2778 144.001 92.3379 143.971 92.3979C143.971 92.3379 144.001 92.2778 144.001 92.2178ZM167.212 98.7638C167.903 99.7848 168.624 100.746 169.434 101.707C170.425 102.878 171.536 103.899 172.767 104.829C173.668 105.49 174.689 106.031 175.74 106.391C175.56 106.811 175.35 107.232 175.17 107.652C172.167 114.138 169.044 120.594 165.741 126.93C162.888 132.395 159.886 137.8 156.583 143.025C156.432 142.184 156.312 141.373 156.192 140.532C155.532 135.488 155.682 130.383 156.342 125.368C157.093 119.873 158.474 114.438 160.606 109.334C161.897 106.361 163.459 103.478 165.411 100.866C165.951 100.115 166.552 99.4244 167.212 98.7638ZM160.516 109.484C160.516 109.514 160.486 109.544 160.486 109.574C160.486 109.544 160.486 109.514 160.516 109.484ZM112.502 79.3959C112.532 79.3359 112.562 79.2758 112.562 79.2158C112.532 79.2758 112.502 79.3359 112.502 79.3959ZM187.992 72.4896L188.022 72.4595C188.052 72.4295 188.052 72.4295 188.052 72.3995C188.052 72.4295 188.022 72.4595 187.992 72.4896Z" fill="#0B2034"/>
</svg>
